<svg xmlns="http://www.w3.org/2000/svg" width="360" height="558" viewBox="0 0 360 558" role="img"><title>Latest study notes · source-backed bookmarks</title><rect x="1" y="1" width="358" height="556" rx="18" fill="#ECE9E0" stroke="#A4ABD6"/><text x="16" y="35" fill="#353247" font-family="Segoe UI,Microsoft YaHei,Arial,sans-serif" font-size="20" font-weight="600">最新学习笔记 · 书签</text><rect x="16" y="56" width="328" height="142" rx="14" fill="#FFFFFF"/><path d="M304 56h24v37l-12-8-12 8Z" fill="#A4ABD6"/><text x="32" y="87" fill="#353247" font-family="Segoe UI,Microsoft YaHei,Arial,sans-serif" font-size="20" font-weight="600">量子信息</text><text x="32" y="120" fill="#353247" font-family="Segoe UI,Microsoft YaHei,Arial,sans-serif" font-size="18" font-weight="400">Digital Circuit</text><text x="32" y="150" fill="#353247" font-family="Segoe UI,Microsoft YaHei,Arial,sans-serif" font-size="14" font-weight="400">2026-08-03 UTC</text><text x="32" y="178" fill="#696394" font-family="Segoe UI,Microsoft YaHei,Arial,sans-serif" font-size="15" font-weight="400">打开笔记目录 ↗</text><rect x="16" y="212" width="328" height="142" rx="14" fill="#FFFFFF"/><path d="M304 212h24v37l-12-8-12 8Z" fill="#A4ABD6"/><text x="32" y="243" fill="#353247" font-family="Segoe UI,Microsoft YaHei,Arial,sans-serif" font-size="20" font-weight="600">生成式 AI</text><text x="32" y="276" fill="#353247" font-family="Segoe UI,Microsoft YaHei,Arial,sans-serif" font-size="18" font-weight="400">生成式人工智能导论(Intro…</text><text x="32" y="306" fill="#353247" font-family="Segoe UI,Microsoft YaHei,Arial,sans-serif" font-size="14" font-weight="400">2026-03-04 UTC</text><text x="32" y="334" fill="#696394" font-family="Segoe UI,Microsoft YaHei,Arial,sans-serif" font-size="15" font-weight="400">打开笔记目录 ↗</text><rect x="16" y="368" width="328" height="142" rx="14" fill="#FFFFFF"/><path d="M304 368h24v37l-12-8-12 8Z" fill="#A4ABD6"/><text x="32" y="399" fill="#353247" font-family="Segoe UI,Microsoft YaHei,Arial,sans-serif" font-size="20" font-weight="600">微调</text><text x="32" y="432" fill="#353247" font-family="Segoe UI,Microsoft YaHei,Arial,sans-serif" font-size="18" font-weight="400">LLaMA Factory</text><text x="32" y="462" fill="#353247" font-family="Segoe UI,Microsoft YaHei,Arial,sans-serif" font-size="14" font-weight="400">2025-12-22 UTC</text><text x="32" y="490" fill="#696394" font-family="Segoe UI,Microsoft YaHei,Arial,sans-serif" font-size="15" font-weight="400">打开笔记目录 ↗</text><text x="16" y="540" fill="#353247" font-family="Segoe UI,Microsoft YaHei,Arial,sans-serif" font-size="13" font-weight="400">每仓库一篇 · 按更新日期排序</text></svg>