<svg xmlns="http://www.w3.org/2000/svg" width="900" height="370" viewBox="0 0 900 370" role="img"><title>Projection of 54 Pt atoms from the AdsMind repository</title><style>
.bg{fill:#ECE9E0}.panel{fill:#fff}.ink{fill:#353247}.muted{fill:#514C63}
.accent{fill:#A4ABD6}.line{stroke:#A4ABD6;fill:none}.petal{fill:#A4ABD6;opacity:.25}
@media(prefers-color-scheme:dark){.bg{fill:#22212D}.panel{fill:#302E40}.ink{fill:#fff}.muted{fill:#D8D5E5}}
.pulse{animation:pulse 3s ease-in-out infinite}@keyframes pulse{50%{opacity:.4}}
@media(prefers-reduced-motion:reduce){.pulse{animation:none}}
text{font-family:Segoe UI,Microsoft YaHei,Arial,sans-serif}
</style><style>.bg{fill:#ECE9E0}.panel{fill:#FFFEFA}.ink{fill:#353247}.muted{fill:#575166}.pulse{animation:pulse 6s ease-in-out infinite}@media(prefers-color-scheme:dark){.bg{fill:#22212D}.panel{fill:#343145}.ink{fill:#FFFFFF}.muted{fill:#DED9EB}.line{stroke:#B9BEE5}}@media(prefers-reduced-motion:reduce){.pulse{animation:none}}</style><rect width="900" height="370" rx="24" class="bg"/><path d="M822 12 Q872 40 862 82 Q806 65 822 12" class="petal"/><text x="24" y="40" class="ink" font-size="23" font-weight="700">Pt(111) · 54 Pt · repository coordinates</text><defs><radialGradient id="pt" cx="30%" cy="25%"><stop stop-color="#fff"/><stop offset=".45" stop-color="#A4ABD6"/><stop offset="1" stop-color="#514C63"/></radialGradient></defs><circle cx="448.605" cy="75.000" r="13" fill="url(#pt)" stroke="#514C63" stroke-width="1"/><circle cx="405.615" cy="82.554" r="13" fill="url(#pt)" stroke="#514C63" stroke-width="1"/><circle cx="494.184" cy="89.246" r="13" fill="url(#pt)" stroke="#514C63" stroke-width="1"/><circle cx="362.682" cy="90.310" r="13" fill="url(#pt)" stroke="#514C63" stroke-width="1"/><circle cx="451.641" cy="96.921" r="13" fill="url(#pt)" stroke="#514C63" stroke-width="1"/><circle cx="461.729" cy="102.873" r="13" fill="url(#pt)" stroke="#514C63" stroke-width="1"/><circle cx="540.116" cy="103.091" r="13" fill="url(#pt)" stroke="#514C63" stroke-width="1"/><circle cx="408.331" cy="103.773" r="13" fill="url(#pt)" stroke="#514C63" stroke-width="1"/><circle cx="418.845" cy="110.619" r="13" fill="url(#pt)" stroke="#514C63" stroke-width="1"/><circle cx="497.484" cy="111.257" r="13" fill="url(#pt)" stroke="#514C63" stroke-width="1"/><circle cx="507.692" cy="117.237" r="13" fill="url(#pt)" stroke="#514C63" stroke-width="1"/><circle cx="375.960" cy="118.364" r="13" fill="url(#pt)" stroke="#514C63" stroke-width="1"/><circle cx="455.219" cy="118.431" r="13" fill="url(#pt)" stroke="#514C63" stroke-width="1"/><circle cx="464.808" cy="124.982" r="13" fill="url(#pt)" stroke="#514C63" stroke-width="1"/><circle cx="553.655" cy="131.600" r="13" fill="url(#pt)" stroke="#514C63" stroke-width="1"/><circle cx="421.924" cy="132.727" r="13" fill="url(#pt)" stroke="#514C63" stroke-width="1"/><circle cx="432.113" cy="138.196" r="13" fill="url(#pt)" stroke="#514C63" stroke-width="1"/><circle cx="510.771" cy="139.346" r="13" fill="url(#pt)" stroke="#514C63" stroke-width="1"/><circle cx="389.229" cy="145.941" r="13" fill="url(#pt)" stroke="#514C63" stroke-width="1"/><circle cx="467.887" cy="147.091" r="13" fill="url(#pt)" stroke="#514C63" stroke-width="1"/><circle cx="478.076" cy="152.560" r="13" fill="url(#pt)" stroke="#514C63" stroke-width="1"/><circle cx="346.345" cy="153.687" r="13" fill="url(#pt)" stroke="#514C63" stroke-width="1"/><circle cx="435.192" cy="160.305" r="13" fill="url(#pt)" stroke="#514C63" stroke-width="1"/><circle cx="524.040" cy="166.923" r="13" fill="url(#pt)" stroke="#514C63" stroke-width="1"/><circle cx="392.308" cy="168.050" r="13" fill="url(#pt)" stroke="#514C63" stroke-width="1"/><circle cx="481.155" cy="174.668" r="13" fill="url(#pt)" stroke="#514C63" stroke-width="1"/><circle cx="438.271" cy="182.414" r="13" fill="url(#pt)" stroke="#514C63" stroke-width="1"/><circle cx="448.461" cy="187.882" r="13" fill="url(#pt)" stroke="#514C63" stroke-width="1"/><circle cx="405.576" cy="195.628" r="13" fill="url(#pt)" stroke="#514C63" stroke-width="1"/><circle cx="494.424" cy="202.246" r="13" fill="url(#pt)" stroke="#514C63" stroke-width="1"/><circle cx="362.692" cy="203.373" r="13" fill="url(#pt)" stroke="#514C63" stroke-width="1"/><circle cx="451.539" cy="209.991" r="13" fill="url(#pt)" stroke="#514C63" stroke-width="1"/><circle cx="461.729" cy="215.460" r="13" fill="url(#pt)" stroke="#514C63" stroke-width="1"/><circle cx="540.387" cy="216.609" r="13" fill="url(#pt)" stroke="#514C63" stroke-width="1"/><circle cx="408.655" cy="217.736" r="13" fill="url(#pt)" stroke="#514C63" stroke-width="1"/><circle cx="418.845" cy="223.205" r="13" fill="url(#pt)" stroke="#514C63" stroke-width="1"/><circle cx="497.503" cy="224.355" r="13" fill="url(#pt)" stroke="#514C63" stroke-width="1"/><circle cx="507.692" cy="229.823" r="13" fill="url(#pt)" stroke="#514C63" stroke-width="1"/><circle cx="375.960" cy="230.950" r="13" fill="url(#pt)" stroke="#514C63" stroke-width="1"/><circle cx="454.618" cy="232.100" r="13" fill="url(#pt)" stroke="#514C63" stroke-width="1"/><circle cx="464.808" cy="237.569" r="13" fill="url(#pt)" stroke="#514C63" stroke-width="1"/><circle cx="553.655" cy="244.187" r="13" fill="url(#pt)" stroke="#514C63" stroke-width="1"/><circle cx="421.924" cy="245.314" r="13" fill="url(#pt)" stroke="#514C63" stroke-width="1"/><circle cx="432.113" cy="250.783" r="13" fill="url(#pt)" stroke="#514C63" stroke-width="1"/><circle cx="510.771" cy="251.932" r="13" fill="url(#pt)" stroke="#514C63" stroke-width="1"/><circle cx="389.229" cy="258.528" r="13" fill="url(#pt)" stroke="#514C63" stroke-width="1"/><circle cx="467.887" cy="259.677" r="13" fill="url(#pt)" stroke="#514C63" stroke-width="1"/><circle cx="478.076" cy="265.146" r="13" fill="url(#pt)" stroke="#514C63" stroke-width="1"/><circle cx="346.345" cy="266.273" r="13" fill="url(#pt)" stroke="#514C63" stroke-width="1"/><circle cx="435.192" cy="272.891" r="13" fill="url(#pt)" stroke="#514C63" stroke-width="1"/><circle cx="524.040" cy="279.510" r="13" fill="url(#pt)" stroke="#514C63" stroke-width="1"/><circle cx="392.308" cy="280.637" r="13" fill="url(#pt)" stroke="#514C63" stroke-width="1"/><circle cx="481.155" cy="287.255" r="13" fill="url(#pt)" stroke="#514C63" stroke-width="1"/><circle cx="438.271" cy="295.000" r="13" fill="url(#pt)" stroke="#514C63" stroke-width="1"/><text x="24" y="346" class="muted" font-size="17" font-weight="400">Coordinate projection · not a new optimization result</text><path d="M852 13 q-16 15 2 26 q-27 4-20-21" fill="#C39B65" opacity=".55"/><path d="M876 346 q-12-10-12 0 q0 8 12 0 q12-10 12 0 q0 8-12 0 m-3 2-4 7 m10-7 4 7" fill="none" stroke="#A83F55" stroke-width="1.5" opacity=".5"/><rect x="1" y="1" width="898" height="368" rx="23" fill="none" stroke="#A4ABD6" opacity=".3"/></svg>